<!DOCTYPE svg PUBLIC "-//W3C//DTD SVG 1.1//EN" "http://www.w3.org/Graphics/SVG/1.1/DTD/svg11.dtd">
<!-- Uploaded to: SVG Repo, www.svgrepo.com, Transformed by: SVG Repo Mixer Tools -->
<svg fill="#6a6d78" height="800px" width="800px" version="1.1" id="Layer_1" xmlns="http://www.w3.org/2000/svg" xmlns:xlink="http://www.w3.org/1999/xlink" viewBox="0 0 511.999 511.999" xml:space="preserve">
<g id="SVGRepo_bgCarrier" stroke-width="0"/>
<g id="SVGRepo_tracerCarrier" stroke-linecap="round" stroke-linejoin="round"/>
<g id="SVGRepo_iconCarrier"> <g> <g> <path d="M485.314,267.533h-19.989c-8.12-89.681-72.794-163.277-157.983-184.742c3.823-7.677,5.985-16.32,5.985-25.463 C313.327,25.718,287.61,0,255.998,0c-31.612,0-57.329,25.718-57.329,57.329c0,9.143,2.162,17.786,5.985,25.463 c-85.188,21.465-149.862,95.061-157.982,184.742H26.685c-10.554,0-19.109,8.555-19.109,19.11c0,10.552,8.556,19.109,19.109,19.109 h38.219h382.19h38.219c10.555,0,19.11-8.557,19.11-19.109C504.423,276.088,495.868,267.533,485.314,267.533z M354.204,224.443 c-3.646,3.264-8.202,4.869-12.738,4.869c-5.246,0-10.471-2.148-14.246-6.365c-18.118-20.242-44.077-31.852-71.221-31.852 c-10.554,0-19.109-8.557-19.109-19.109c0-10.555,8.556-19.11,19.109-19.11c38.002,0,74.342,16.25,99.699,44.583 C362.737,205.323,362.069,217.403,354.204,224.443z"/> </g> </g> <g> <g> <path d="M374.914,344.659H240.198c-17.037,0-30.898,13.859-30.898,30.896c0,8.251,3.213,16.009,9.05,21.845 c5.836,5.836,13.595,9.05,21.847,9.05l47.953,0.001c5.278,0,9.555,4.278,9.555,9.555c0,5.277-4.277,9.556-9.555,9.556h-95.344 c-2.534,0-4.963-1.008-6.756-2.799l-69.745-69.745c-5.835-5.835-13.593-9.048-21.843-9.048c-8.254,0-16.014,3.213-21.849,9.049 c-12.045,12.048-12.045,31.648,0,43.695l90.638,90.638l205.798,0.003c2.535,0,4.963,1.005,6.758,2.798l21.845,21.846l72.3-72.299 L374.914,344.659z"/> </g> </g> </g>
</svg>