<!DOCTYPE svg PUBLIC "-//W3C//DTD SVG 1.1//EN" "http://www.w3.org/Graphics/SVG/1.1/DTD/svg11.dtd">
<!-- Uploaded to: SVG Repo, www.svgrepo.com, Transformed by: SVG Repo Mixer Tools -->
<svg fill="#6573e2" height="800px" width="800px" version="1.1" id="Layer_1" xmlns="http://www.w3.org/2000/svg" xmlns:xlink="http://www.w3.org/1999/xlink" viewBox="0 0 24 24" enable-background="new 0 0 24 24" xml:space="preserve" stroke="#6573e2">
<g id="SVGRepo_bgCarrier" stroke-width="0"/>
<g id="SVGRepo_tracerCarrier" stroke-linecap="round" stroke-linejoin="round"/>
<g id="SVGRepo_iconCarrier"> <g id="view"> <g> <path d="M12,21c-5,0-8.8-2.8-11.8-8.5L0,12l0.2-0.5C3.2,5.8,7,3,12,3s8.8,2.8,11.8,8.5L24,12l-0.2,0.5C20.8,18.2,17,21,12,21z M2.3,12c2.5,4.7,5.7,7,9.7,7s7.2-2.3,9.7-7C19.2,7.3,16,5,12,5S4.8,7.3,2.3,12z"/> </g> <g> <path d="M12,17c-2.8,0-5-2.2-5-5s2.2-5,5-5s5,2.2,5,5S14.8,17,12,17z M12,9c-1.7,0-3,1.3-3,3s1.3,3,3,3s3-1.3,3-3S13.7,9,12,9z"/> </g> </g> </g>
</svg>