<!DOCTYPE svg PUBLIC "-//W3C//DTD SVG 1.1//EN" "http://www.w3.org/Graphics/SVG/1.1/DTD/svg11.dtd">
<!-- Uploaded to: SVG Repo, www.svgrepo.com, Transformed by: SVG Repo Mixer Tools -->
<svg height="800px" width="800px" version="1.1" id="Layer_1" xmlns="http://www.w3.org/2000/svg" xmlns:xlink="http://www.w3.org/1999/xlink" viewBox="0 0 512 512" xml:space="preserve" fill="#000000">
<g id="SVGRepo_bgCarrier" stroke-width="0"/>
<g id="SVGRepo_tracerCarrier" stroke-linecap="round" stroke-linejoin="round"/>
<g id="SVGRepo_iconCarrier"> <path style="fill:#8b9797;" d="M0,256.006C0,397.402,114.606,512.004,255.996,512C397.394,512.004,512,397.402,512,256.006 C512.009,114.61,397.394,0,255.996,0C114.606,0,0,114.614,0,256.006z"/> <path style="fill:#8896A5;" d="M512,256.005c0.001-15.504-1.454-30.659-4.093-45.403c-0.301-0.306-0.592-0.62-0.911-0.911 c-0.486-0.529-101.081-101.126-101.612-101.612c-4.569-4.962-11.072-8.133-18.355-8.133H124.86 c-13.767,0-24.969,11.139-24.969,24.827c0,7.217,3.166,13.667,8.128,18.208c0.487,0.529,32.131,32.218,32.293,32.384 c-10.465,5.627-18.016,16.078-19.335,28.665L99.929,368.749c-1.173,11.17,2.082,21.661,9.172,29.537 c0.34,0.379,0.795,0.645,1.151,1.01c0.138,0.159,109.419,109.545,109.559,109.701c0.162,0.179,0.356,0.329,0.547,0.48 c11.652,1.623,23.537,2.524,35.636,2.523C397.394,512.004,512,397.401,512,256.005z"/> <g> <path style="fill:#F4F6F9;" d="M232.61,258.102c-2.75-2.778-7.246-2.805-10.031-0.048c-2.785,2.753-2.805,7.246-0.048,10.031 l28.373,28.657c1.386,1.399,3.211,2.102,5.039,2.102c1.805,0,3.609-0.683,4.991-2.054c2.785-2.753,2.805-7.246,0.048-10.031 L232.61,258.102z"/> <path style="fill:#F4F6F9;" d="M341.045,291.372c-0.205-46.126-37.289-83.636-83.225-84.645c-0.611-0.172-1.211-0.38-1.877-0.38 c-0.667,0-1.266,0.208-1.877,0.38c-45.936,1.009-83.02,38.519-83.225,84.645c0,0.034-0.019,0.062-0.019,0.095 c0,0.02,0.012,0.036,0.012,0.058c0,0.077-0.012,0.15-0.012,0.227c0,46.934,38.186,85.12,85.12,85.12s85.12-38.186,85.12-85.12 c0-0.077-0.012-0.15-0.012-0.227c0-0.02,0.012-0.037,0.012-0.058C341.065,291.433,341.045,291.405,341.045,291.372z M319.785,298.56h6.749c-1.372,14.326-7.015,27.417-15.649,37.986l-7.306-7.475c-2.739-2.799-7.229-2.85-10.031-0.117 c-2.802,2.739-2.854,7.229-0.117,10.031l7.438,7.611c-10.522,8.635-23.557,14.306-37.83,15.73v-7.019 c0-3.917-3.177-7.093-7.093-7.093c-3.917,0-7.093,3.177-7.093,7.093v7.018c-14.273-1.424-27.309-7.097-37.83-15.73l7.438-7.611 c2.736-2.802,2.684-7.291-0.117-10.031c-2.799-2.733-7.284-2.681-10.031,0.117l-7.306,7.475 c-8.634-10.569-14.277-23.66-15.649-37.986h6.749c3.917,0,7.093-3.177,7.093-7.093s-3.177-7.093-7.093-7.093h-6.706 c1.47-14.162,7.126-27.097,15.703-37.548l7.326,7.155c1.378,1.347,3.169,2.019,4.957,2.019c1.842,0,3.685-0.714,5.074-2.137 c2.736-2.802,2.684-7.294-0.117-10.031l-7.19-7.023c10.499-8.577,23.484-14.214,37.7-15.633v6.45c0,3.917,3.177,7.093,7.093,7.093 c3.917,0,7.093-3.177,7.093-7.093v-6.45c14.217,1.419,27.201,7.056,37.7,15.633l-7.19,7.023c-2.802,2.736-2.854,7.229-0.117,10.031 c1.389,1.424,3.232,2.137,5.074,2.137c1.787,0,3.578-0.672,4.957-2.019l7.326-7.155c8.577,10.452,14.234,23.386,15.703,37.548 h-6.706c-3.917,0-7.093,3.177-7.093,7.093S315.867,298.56,319.785,298.56z"/> <path style="fill:#F4F6F9;" d="M411.939,368.593l-21.006-164.404c-1.995-18.991-17.764-33.309-36.683-33.309h-27.373V149.6h60.151 c13.767,0,24.969-11.139,24.969-24.827s-11.201-24.827-24.969-24.827H124.86c-13.767,0-24.969,11.139-24.969,24.827 S111.092,149.6,124.86,149.6h60.151v21.28h-27.373c-18.918,0-34.687,14.318-36.661,33.15L99.93,368.749 c-1.174,11.17,2.081,21.661,9.171,29.537c7.876,8.749,20.033,13.767,33.35,13.767h234.08c11.392,0,20.733-3.689,27.015-10.668 C410.487,393.676,413.397,382.388,411.939,368.593z M114.078,124.773c0-5.868,4.835-10.64,10.782-10.64h262.17 c5.947,0,10.782,4.772,10.782,10.64c0,5.868-4.835,10.64-10.782,10.64H124.86C118.913,135.413,114.078,130.641,114.078,124.773z M199.198,149.6h113.493v21.28H199.198L199.198,149.6L199.198,149.6z M393.001,391.896c-3.567,3.963-9.109,5.971-16.469,5.971 h-234.08c-9.303,0-17.616-3.308-22.807-9.071c-4.427-4.922-6.366-11.337-5.625-18.402l21.047-164.722 c1.212-11.554,11.129-20.605,22.572-20.605h196.612c11.443,0,21.36,9.051,22.593,20.764l21.006,164.407 C398.853,379.766,397.178,387.254,393.001,391.896z"/> </g> </g>
</svg>